# xmcd CD database file
#
# Track frame offsets:
#	150
#	19717
#	25015
#	37815
#
# Disc length: 763 seconds
#
# Revision: 0
# Processed by: cddbd v1.5PL3 Copyright (c) Steve Scherf et al.
# Submitted via: CDex 1.50
#
DISCID=1e02f904
DTITLE=山崎まさよし - 僕はここにいる
DYEAR=1998
DGENRE=Blues
TTITLE0=僕はここにいる
TTITLE1=mud skiffle track V
TTITLE2=おうちへ帰ろう
TTITLE3=僕はここにいる (Backing Track)
EXTD=YEAR: 1998
EXTT0=
EXTT1=
EXTT2=
EXTT3=
PLAYORDER=
